HIERARCHY
ROOT Hips
{
	OFFSET -0.001795 -0.223333 0.028219
	CHANNELS 6 Xposition Yposition Zposition Zrotation Yrotation Xrotation 
	JOINT LeftUpLeg
	{
		OFFSET 0.069520 -0.091406 -0.006815
		CHANNELS 3 Zrotation Yrotation Xrotation
		JOINT LeftLeg
		{
			OFFSET 0.034277 -0.375199 -0.004496
			CHANNELS 3 Zrotation Yrotation Xrotation
			JOINT LeftFoot
			{
				OFFSET -0.013596 -0.397961 -0.043693
				CHANNELS 3 Zrotation Yrotation Xrotation
				JOINT LeftToe
				{
					OFFSET 0.026358 -0.055791 0.119288
					CHANNELS 3 Zrotation Yrotation Xrotation
					End Site
					{
						OFFSET 0.000000 0.000000 0.000000
					}
				}
			}
		}
	}
	JOINT RightUpLeg
	{
		OFFSET -0.067670 -0.090522 -0.004320
		CHANNELS 3 Zrotation Yrotation Xrotation
		JOINT RightLeg
		{
			OFFSET -0.038290 -0.382569 -0.008850
			CHANNELS 3 Zrotation Yrotation Xrotation
			JOINT RightFoot
			{
				OFFSET 0.015774 -0.398415 -0.042312
				CHANNELS 3 Zrotation Yrotation Xrotation
				JOINT RightToe
				{
					OFFSET -0.025372 -0.048144 0.123348
					CHANNELS 3 Zrotation Yrotation Xrotation
					End Site
					{
						OFFSET 0.000000 0.000000 0.000000
					}
				}
			}
		}
	}
	JOINT Spine
	{
		OFFSET -0.002533 0.108963 -0.026696
		CHANNELS 3 Zrotation Yrotation Xrotation
		JOINT Spine1
		{
			OFFSET 0.005487 0.135180 0.001092
			CHANNELS 3 Zrotation Yrotation Xrotation
			JOINT Spine2
			{
				OFFSET 0.001457 0.052922 0.025425
				CHANNELS 3 Zrotation Yrotation Xrotation
				JOINT Neck
				{
					OFFSET -0.002778 0.213870 -0.042857
					CHANNELS 3 Zrotation Yrotation Xrotation
					JOINT Head
					{
						OFFSET 0.005152 0.064970 0.051349
						CHANNELS 3 Zrotation Yrotation Xrotation
						End Site
						{
							OFFSET 0.000000 0.000000 0.000000
						}
					}
				}
				JOINT LeftShoulder
				{
					OFFSET 0.078845 0.121749 -0.034090
					CHANNELS 3 Zrotation Yrotation Xrotation
					JOINT LeftArm
					{
						OFFSET 0.090977 0.030469 -0.008868
						CHANNELS 3 Zrotation Yrotation Xrotation
						JOINT LeftForeArm
						{
							OFFSET 0.259612 -0.012772 -0.027456
							CHANNELS 3 Zrotation Yrotation Xrotation
							JOINT LeftHand
							{
								OFFSET 0.249234 0.008986 -0.001171
								CHANNELS 3 Zrotation Yrotation Xrotation
								End Site
								{
									OFFSET 0.000000 0.000000 0.000000
								}
							}
						}
					}
				}
				JOINT RightShoulder
				{
					OFFSET -0.081759 0.118833 -0.038615
					CHANNELS 3 Zrotation Yrotation Xrotation
					JOINT RightArm
					{
						OFFSET -0.096012 0.032551 -0.009143
						CHANNELS 3 Zrotation Yrotation Xrotation
						JOINT RightForeArm
						{
							OFFSET -0.253742 -0.013329 -0.021401
							CHANNELS 3 Zrotation Yrotation Xrotation
							JOINT RightHand
							{
								OFFSET -0.255298 0.007772 -0.005559
								CHANNELS 3 Zrotation Yrotation Xrotation
								End Site
								{
									OFFSET 0.000000 0.000000 0.000000
								}
							}
						}
					}
				}
			}
		}
	}
}
MOTION
Frames: 13
Frame Time: 0.050000
0.000000 0.964773 0.000000 -0.950920 -1.059206 -1.038855 -0.014055 0.150922 1.632454 1.671414 -0.218557 0.643361 -3.470517 -4.091396 5.985903 0.000000 0.000000 0.000000 3.484146 -0.499831 3.261150 -1.756719 0.193708 0.167024 0.695882 -1.609047 6.596996 0.000000 0.000000 0.000000 -1.232211 -0.061170 2.232362 -1.837022 0.889077 -0.913298 0.017113 0.841918 8.833708 1.118584 0.080348 -11.302460 0.000000 0.000000 0.000000 -23.138113 -0.007839 -2.208065 -48.929463 -0.684305 -5.895244 -6.218754 -27.267153 2.605728 0.000000 0.000000 0.000000 20.265266 1.453289 -0.895433 53.925235 0.039886 -5.661674 15.221758 32.766424 5.489100 0.000000 0.000000 0.000000 
-0.000218 0.962876 0.000661 -0.721908 -0.639706 -0.577644 0.025211 0.138115 1.510036 1.740055 -0.187977 -0.110208 -3.780315 -5.163394 5.049964 0.000000 0.000000 0.000000 2.790301 -0.441191 3.044127 -1.232490 0.128589 -0.027314 0.200465 -1.480822 3.945082 0.000000 0.000000 0.000000 -1.506406 -0.021694 1.126469 -1.882549 0.902129 0.704447 -0.148725 0.263167 7.663354 0.719127 0.437609 -12.783442 0.000000 0.000000 0.000000 -22.091847 0.522379 -2.334141 -50.811585 -0.634017 -6.076715 -4.495027 -27.649347 2.243164 0.000000 0.000000 0.000000 20.057516 1.369286 -1.059013 54.291881 -1.799246 -6.367175 15.928219 34.959299 6.057637 0.000000 0.000000 0.000000 
-0.000137 0.961990 0.001098 -0.495692 -0.478688 0.008154 -0.383635 0.037921 0.353453 2.491381 -0.336110 1.081033 -4.273109 -6.452128 4.480315 0.000000 0.000000 0.000000 2.543108 -0.373764 2.559528 -1.062547 0.114904 0.059865 -0.433826 -2.692331 3.379690 0.000000 0.000000 0.000000 -1.037138 -0.022450 0.978789 -1.824391 0.882021 -0.893178 -0.607266 -0.146755 9.054390 0.665755 0.426848 -12.633597 0.000000 0.000000 0.000000 -22.266527 0.056017 -1.956410 -50.630934 -1.288741 -5.931732 -3.536714 -26.030137 1.918561 0.000000 0.000000 0.000000 20.669790 1.933948 -0.822139 54.159841 -1.753430 -6.443803 12.915175 34.758551 5.113591 0.000000 0.000000 0.000000 
-0.000002 0.962429 0.001306 -0.336421 -0.319613 -0.269793 -0.459925 0.064144 0.618861 2.938036 -0.385114 1.004559 -5.068474 -7.704529 5.006975 0.000000 0.000000 0.000000 2.539355 -0.406251 2.844809 -0.937898 0.109383 0.211753 -0.697399 -3.107372 2.922435 0.000000 0.000000 0.000000 -1.238807 -0.027070 1.205232 -1.827069 0.880148 -0.260346 -0.549521 -0.758539 8.503263 0.639455 0.382664 -12.471075 0.000000 0.000000 0.000000 -22.680463 0.379294 -2.044905 -50.362408 -0.767949 -6.099261 -2.979635 -26.422797 1.844695 0.000000 0.000000 0.000000 21.053720 2.590012 -0.662967 53.497819 -1.967132 -6.367056 12.496006 34.517140 4.874044 0.000000 0.000000 0.000000 
0.000319 0.962618 0.001335 -0.315514 -0.424823 -0.359733 -0.620417 0.050612 0.454548 3.003307 -0.432278 1.645948 -4.544696 -6.672900 5.014738 0.000000 0.000000 0.000000 2.522057 -0.425440 3.013583 -1.100574 0.126964 0.215255 -0.501813 -2.483697 2.546085 0.000000 0.000000 0.000000 -0.700971 -0.052759 1.667013 -2.019894 0.971982 -0.135728 -0.524235 -0.951766 8.149617 0.614777 0.395181 -12.725967 0.000000 0.000000 0.000000 -23.098102 -0.174311 -1.698855 -50.040539 -0.554192 -6.134794 -2.983938 -25.960863 1.814862 0.000000 0.000000 0.000000 20.977540 2.524299 -0.780818 53.904218 -1.777734 -6.289513 11.218132 33.682836 4.339035 0.000000 0.000000 0.000000 
0.000784 0.962712 0.001191 -0.156573 -0.258591 -0.382178 -0.892031 0.040804 0.315329 2.858450 -0.437364 2.045450 -4.348920 -6.486502 4.655088 0.000000 0.000000 0.000000 2.480292 -0.452639 3.256257 -1.301318 0.147553 0.188619 -0.196201 -1.577606 2.179985 0.000000 0.000000 0.000000 -0.702836 -0.067637 2.098800 -1.900903 0.917260 -0.503267 -0.583927 -1.566890 8.345013 0.429788 0.504489 -13.358735 0.000000 0.000000 0.000000 -23.378446 -0.071633 -1.613406 -49.850419 -0.263721 -6.286822 -3.339128 -26.066433 1.934943 0.000000 0.000000 0.000000 20.974205 2.879870 -0.728632 53.668609 -1.680195 -6.204184 10.975857 32.950058 4.118906 0.000000 0.000000 0.000000 
0.001212 0.962700 0.000552 -0.025643 -0.082572 -0.384578 -0.933778 0.045763 0.357680 2.716230 -0.403159 1.779702 -4.344669 -6.136718 5.222541 0.000000 0.000000 0.000000 2.515180 -0.435917 3.105577 -1.424597 0.184568 0.634159 -0.152844 -1.282440 1.789445 0.000000 0.000000 0.000000 -0.628864 -0.081125 2.432265 -1.806616 0.872206 -0.452242 -0.701223 -1.977330 8.436900 0.489788 0.476530 -14.051290 0.000000 0.000000 0.000000 -23.487612 -0.269001 -1.404333 -49.864704 -0.156802 -6.366813 -4.066362 -25.903253 2.103270 0.000000 0.000000 0.000000 20.894598 3.039630 -0.719633 53.842263 -1.184619 -6.001374 10.621022 31.889853 3.849088 0.000000 0.000000 0.000000 
0.001357 0.962652 -0.000686 0.129505 -0.165655 -0.575735 -1.096856 0.001352 -0.097011 2.775440 -0.481485 2.972022 -3.794083 -5.502434 4.444085 0.000000 0.000000 0.000000 2.506343 -0.409562 2.904942 -1.418099 0.205577 1.051153 -0.297313 -1.355640 1.199589 0.000000 0.000000 0.000000 -0.702433 -0.109185 3.298368 -1.757738 0.849218 -0.431939 -0.670352 -2.405200 8.742223 0.479342 0.444004 -14.289717 0.000000 0.000000 0.000000 -23.536827 -0.430358 -1.144788 -49.613139 0.286883 -6.579708 -5.369813 -26.489429 2.488371 0.000000 0.000000 0.000000 20.691657 3.304575 -0.686826 53.969680 -1.040514 -5.958099 10.568681 31.941663 3.804530 0.000000 0.000000 0.000000 
0.001025 0.962582 -0.002799 0.179533 0.063875 -0.647984 -1.197999 -0.058644 -0.696861 2.939854 -0.565956 4.001054 -3.581352 -5.329381 3.976722 0.000000 0.000000 0.000000 2.688689 -0.345773 2.327080 -1.253997 0.234514 1.984387 -0.614643 -1.927949 0.750165 0.000000 0.000000 0.000000 -0.786242 -0.139024 4.260845 -1.551637 0.752972 -0.560219 -0.754652 -2.701019 9.237742 0.426047 0.483113 -14.775689 0.000000 0.000000 0.000000 -23.503270 -0.656228 -0.935130 -49.452017 0.309637 -6.627475 -6.372946 -26.679830 2.757557 0.000000 0.000000 0.000000 20.790920 3.685601 -0.518110 53.758955 -1.055615 -5.973059 10.796091 32.068477 3.877545 0.000000 0.000000 0.000000 
0.000088 0.962454 -0.005585 0.110708 0.303559 -0.504900 -1.059468 -0.234532 -2.448765 3.050851 -0.767723 6.983537 -2.841741 -4.813894 2.221894 0.000000 0.000000 0.000000 2.833073 -0.230950 1.358554 -1.078233 0.251288 2.766759 -0.812830 -2.142591 0.142383 0.000000 0.000000 0.000000 -0.905704 -0.164421 5.187608 -1.510976 0.735037 -0.656563 -0.620488 -3.213479 9.782131 0.181197 0.639101 -15.673084 0.000000 0.000000 0.000000 -23.199885 0.015797 -1.166448 -49.068503 0.698340 -6.795387 -8.683163 -27.604358 3.465406 0.000000 0.000000 0.000000 20.381921 3.955893 -0.432974 53.720357 -1.558324 -6.214609 11.739016 32.916421 4.226266 0.000000 0.000000 0.000000 
-0.001183 0.962209 -0.008893 -0.206555 0.500916 -0.345684 -0.511716 -0.450526 -4.769609 2.729393 -0.934389 10.622402 -2.295146 -4.595955 0.597864 0.000000 0.000000 0.000000 3.154446 -0.162757 0.738557 -0.786400 0.224337 3.015833 -1.010431 -2.491407 -0.196542 0.000000 0.000000 0.000000 -1.079370 -0.192708 6.354318 -1.206718 0.593223 -0.796791 -0.628238 -2.766982 10.368313 0.201566 0.735029 -16.582541 0.000000 0.000000 0.000000 -22.326382 0.548419 -1.565675 -47.975493 1.677279 -7.007034 -11.134154 -29.293685 4.316721 0.000000 0.000000 0.000000 19.753720 3.362538 -0.516618 53.297284 -2.859952 -6.818703 13.640383 34.390426 5.063534 0.000000 0.000000 0.000000 
-0.002206 0.962146 -0.011963 -0.401865 1.055952 -0.035484 -0.116755 -0.723361 -7.837620 2.301076 -1.138485 15.367032 -1.803257 -4.456261 -0.975084 0.000000 0.000000 0.000000 3.113279 -0.018506 -0.376930 -0.475148 0.217214 3.837729 -1.413597 -3.396649 -0.506082 0.000000 0.000000 0.000000 -1.224272 -0.225034 7.628621 -1.551929 0.755818 -0.735212 -0.271509 -2.875311 10.964880 0.233130 0.748023 -17.003696 0.000000 0.000000 0.000000 -22.056897 1.539194 -2.145017 -46.017114 3.442277 -7.363545 -14.353006 -32.022721 5.685762 0.000000 0.000000 0.000000 19.118460 2.338604 -0.949591 51.829444 -5.740721 -7.866562 18.301185 37.293567 7.087696 0.000000 0.000000 0.000000 
-0.002420 0.961821 -0.014008 -0.568352 1.433954 0.576560 0.392112 -1.009290 -11.316360 2.065630 -1.395669 20.328779 -1.234542 -4.242939 -2.717672 0.000000 0.000000 0.000000 3.288576 0.104349 -1.372188 -0.269566 0.203411 4.246800 -1.888317 -4.479371 -0.874348 0.000000 0.000000 0.000000 -1.528715 -0.222495 8.334669 -1.524258 0.737190 -0.453675 -0.368939 -2.372277 11.456521 0.489539 0.709633 -17.654762 0.000000 0.000000 0.000000 -20.576436 2.887549 -2.950473 -44.379179 6.655342 -8.135414 -20.642790 -37.187749 8.819105 0.000000 0.000000 0.000000 18.146246 0.798789 -1.467873 50.567035 -9.419102 -9.194110 25.889089 41.577661 10.994295 0.000000 0.000000 0.000000 
